<?xml version="1.0" encoding="iso-8859-1"?>
<!-- Generator: Adobe Illustrator 16.0.0, SVG Export Plug-In . SVG Version: 6.00 Build 0)  -->
<!DOCTYPE svg PUBLIC "-//W3C//DTD SVG 1.1//EN" "http://www.w3.org/Graphics/SVG/1.1/DTD/svg11.dtd">
<svg version="1.1" id="Capa_1" xmlns="http://www.w3.org/2000/svg" xmlns:xlink="http://www.w3.org/1999/xlink" x="0px" y="0px"
	 width="32px" height="32px" viewBox="0 0 32 32" style="enable-background:new 0 0 32 32;" xml:space="preserve">
<g>
	<g>
		<path d="M24.885,8.587C24.885,8.587,24.884,8.587,24.885,8.587c0.039,0.073,0.066,0.152,0.066,0.24
			c0,0.284-0.23,0.515-0.516,0.515c-0.164,0-0.304-0.083-0.398-0.203c-0.051,0.115-0.081,0.242-0.081,0.376
			c0,0.513,0.416,0.928,0.928,0.928c0.513,0,0.929-0.415,0.929-0.928C25.812,9.003,25.396,8.587,24.885,8.587z"/>
		<path d="M28.555,8.909c-0.873-2.724-3.426-4.697-6.439-4.697c-3.455,0-6.3,2.593-6.708,5.939l-0.002,0.002
			C12.608,14.854,1.877,12.365,0,11.341c3.273,7.316,7.955,10.891,12.538,11.872c1.554,0.825,3.321,1.302,5.204,1.302
			c0.199,0,0.395-0.02,0.59-0.029L17.4,26.067l-1.97,0.646l0.159,0.487l1.91-0.625l0.899,0.923l0.367-0.356l-0.875-0.897l1.06-1.796
			c0.728-0.079,1.437-0.227,2.114-0.438l2.021,2.583l-1.713,0.637l0.178,0.479l1.943-0.722l1.789,0.801l0.209-0.467l-1.826-0.817
			l-2.096-2.678c4.238-1.554,7.271-5.599,7.307-10.364c0.053-0.162,0.102-0.318,0.141-0.461C29.093,12.735,32,9.837,32,9.837
			L28.555,8.909z M16.805,21.562c-2.257,0-7.657-3.406-7.657-4.199c0-0.795,5.4-3.969,7.657-3.969c2.256,0,4.084,1.829,4.084,4.084
			S19.061,21.562,16.805,21.562z M24.757,11.372c-1.024,0-1.856-0.831-1.856-1.857c0-1.025,0.832-1.855,1.856-1.855
			c1.025,0,1.856,0.831,1.856,1.855C26.613,10.541,25.782,11.372,24.757,11.372z"/>
	</g>
</g>
<g>
</g>
<g>
</g>
<g>
</g>
<g>
</g>
<g>
</g>
<g>
</g>
<g>
</g>
<g>
</g>
<g>
</g>
<g>
</g>
<g>
</g>
<g>
</g>
<g>
</g>
<g>
</g>
<g>
</g>
</svg>
